<svg width="51" height="51" viewBox="0 0 51 51" fill="none" xmlns="http://www.w3.org/2000/svg">
<path d="M45.3333 8.5H5.66665C4.9152 8.5 4.19453 8.79851 3.66318 9.32986C3.13182 9.86122 2.83331 10.5819 2.83331 11.3333V39.6667C2.83331 40.4181 3.13182 41.1388 3.66318 41.6701C4.19453 42.2015 4.9152 42.5 5.66665 42.5H26.9166L27.7241 41.5083L29.0416 39.8933L28.9141 39.6667H5.66665V11.3333H45.3333V23.46C46.4096 24.1567 47.3663 25.0226 48.1666 26.0242V11.3333C48.1666 10.5819 47.8681 9.86122 47.3368 9.32986C46.8054 8.79851 46.0848 8.5 45.3333 8.5Z" fill="#135DFF"/>
<path d="M9.91669 17H34V19.2667H9.91669V17Z" fill="#135DFF"/>
<path d="M9.91669 22.6667H25.5V24.9334H9.91669V22.6667Z" fill="#135DFF"/>
<path d="M9.91669 32.5833H24.0834V34.8499H9.91669V32.5833Z" fill="#135DFF"/>
<path d="M38.9017 24.4092C37.0888 24.3948 35.3138 24.9276 33.8085 25.9381C32.3033 26.9485 31.1379 28.3895 30.4646 30.0727C29.7913 31.756 29.6414 33.6032 30.0346 35.373C30.4277 37.1427 31.3457 38.7527 32.6683 39.9926L29.92 43.3501L31.195 48.4642L36.38 42.1459C38.0213 42.6312 39.7679 42.6312 41.4092 42.1459L46.5942 48.4642L47.8692 43.3501L45.1208 39.9926C46.4435 38.7527 47.3614 37.1427 47.7546 35.373C48.1478 33.6032 47.9979 31.756 47.3246 30.0727C46.6513 28.3895 45.4859 26.9485 43.9807 25.9381C42.4754 24.9276 40.7004 24.3948 38.8875 24.4092H38.9017ZM38.9017 39.5392C37.6978 39.5225 36.5258 39.1502 35.5329 38.4691C34.5401 37.7881 33.7707 36.8288 33.3216 35.7117C32.8725 34.5946 32.7636 33.3697 33.0087 32.1909C33.2538 31.0122 33.8419 29.9322 34.6991 29.0868C35.5564 28.2413 36.6444 27.6682 37.8264 27.4394C39.0084 27.2106 40.2317 27.3364 41.3425 27.8009C42.4532 28.2654 43.4019 29.048 44.0691 30.0502C44.7363 31.0523 45.0924 32.2294 45.0925 33.4334C45.0775 35.0629 44.4178 36.6201 43.2576 37.7643C42.0974 38.9086 40.5312 39.5468 38.9017 39.5392Z" fill="#135DFF"/>
</svg>
