<svg width="39" height="39" viewBox="0 0 39 39" fill="none" xmlns="http://www.w3.org/2000/svg">
<path d="M4.875 19.5H19.5V21.9375H4.875V19.5ZM2.4375 13.4062H14.625V15.8438H2.4375V13.4062Z" fill="#03045E"/>
<path d="M36.4638 20.2386L32.8075 11.7073C32.7137 11.488 32.5575 11.3011 32.3584 11.1698C32.1593 11.0385 31.926 10.9686 31.6875 10.9688H28.0313V8.53125C28.0313 8.20802 27.9029 7.89802 27.6743 7.66946C27.4457 7.4409 27.1357 7.3125 26.8125 7.3125H7.31251V9.75H25.5938V25.0526C25.0384 25.3751 24.5524 25.8043 24.1638 26.3156C23.7751 26.8268 23.4915 27.4099 23.3293 28.0312H15.6707C15.3741 26.8824 14.6686 25.8811 13.6866 25.2152C12.7045 24.5493 11.5133 24.2643 10.3362 24.4139C9.15914 24.5634 8.07699 25.137 7.29262 26.0273C6.50824 26.9176 6.0755 28.0635 6.0755 29.25C6.0755 30.4365 6.50824 31.5824 7.29262 32.4727C8.07699 33.363 9.15914 33.9366 10.3362 34.0861C11.5133 34.2357 12.7045 33.9507 13.6866 33.2848C14.6686 32.6189 15.3741 31.6176 15.6707 30.4688H23.3293C23.5944 31.5147 24.2008 32.4424 25.0524 33.1051C25.904 33.7678 26.9522 34.1276 28.0313 34.1276C29.1103 34.1276 30.1586 33.7678 31.0102 33.1051C31.8618 32.4424 32.4681 31.5147 32.7332 30.4688H35.3438C35.667 30.4688 35.977 30.3403 36.2055 30.1118C36.4341 29.8832 36.5625 29.5732 36.5625 29.25V20.7188C36.5626 20.5536 36.529 20.3903 36.4638 20.2386ZM10.9688 31.6875C10.4867 31.6875 10.0154 31.5445 9.61456 31.2767C9.21371 31.0089 8.90129 30.6282 8.7168 30.1828C8.53232 29.7374 8.48405 29.2473 8.5781 28.7745C8.67215 28.3016 8.9043 27.8673 9.24519 27.5264C9.58608 27.1855 10.0204 26.9534 10.4932 26.8593C10.9661 26.7653 11.4562 26.8136 11.9016 26.998C12.3469 27.1825 12.7276 27.495 12.9955 27.8958C13.2633 28.2966 13.4063 28.7679 13.4063 29.25C13.4056 29.8963 13.1486 30.5159 12.6916 30.9729C12.2346 31.4298 11.615 31.6869 10.9688 31.6875ZM28.0313 13.4062H30.8831L33.4961 19.5H28.0313V13.4062ZM28.0313 31.6875C27.5492 31.6875 27.0779 31.5445 26.6771 31.2767C26.2762 31.0089 25.9638 30.6282 25.7793 30.1828C25.5948 29.7374 25.5465 29.2473 25.6406 28.7745C25.7346 28.3016 25.9668 27.8673 26.3077 27.5264C26.6486 27.1855 27.0829 26.9534 27.5557 26.8593C28.0286 26.7653 28.5187 26.8136 28.9641 26.998C29.4094 27.1825 29.7901 27.495 30.058 27.8958C30.3258 28.2966 30.4688 28.7679 30.4688 29.25C30.4681 29.8963 30.2111 30.5159 29.7541 30.9729C29.2971 31.4298 28.6775 31.6869 28.0313 31.6875ZM34.125 28.0312H32.7332C32.4647 26.9873 31.8574 26.062 31.0065 25.4003C30.1556 24.7386 29.1092 24.378 28.0313 24.375V21.9375H34.125V28.0312Z" fill="#135DFF"/>
</svg>
