<svg width="58" height="58" viewBox="0 0 58 58" fill="none" xmlns="http://www.w3.org/2000/svg">
<path d="M48.3334 19.3334H41.0834V9.66675H2.41669V41.0834H7.25002C7.25002 45.0951 10.4884 48.3334 14.5 48.3334C18.5117 48.3334 21.75 45.0951 21.75 41.0834H36.25C36.25 45.0951 39.4884 48.3334 43.5 48.3334C47.5117 48.3334 50.75 45.0951 50.75 41.0834H55.5834V29.0001L48.3334 19.3334ZM14.5 44.7084C12.4942 44.7084 10.875 43.0892 10.875 41.0834C10.875 39.0776 12.4942 37.4584 14.5 37.4584C16.5059 37.4584 18.125 39.0776 18.125 41.0834C18.125 43.0892 16.5059 44.7084 14.5 44.7084ZM36.25 16.9167H31.4167V33.8334H26.5834V16.9167H21.75V33.8334H16.9167V16.9167H12.0834V33.8334H7.25002V14.5001H36.25V16.9167ZM43.5 44.7084C41.4942 44.7084 39.875 43.0892 39.875 41.0834C39.875 39.0776 41.4942 37.4584 43.5 37.4584C45.5059 37.4584 47.125 39.0776 47.125 41.0834C47.125 43.0892 45.5059 44.7084 43.5 44.7084ZM41.0834 29.0001V22.9584H47.125L51.8617 29.0001H41.0834Z" fill="#135DFF"/>
</svg>
