<svg width="43" height="43" viewBox="0 0 43 43" fill="none" xmlns="http://www.w3.org/2000/svg">
<path d="M30.4318 6.93871L29.4798 7.5655L31.9988 9.31868L32.6142 12.3261L33.5662 11.6993L33.5781 9.64399L35.8086 8.17543L36.9381 12.8914L37.8396 12.2979L38.3393 6.50972L40.2434 5.25559C40.3712 5.17456 40.4817 5.06888 40.5683 4.94471C40.6548 4.82054 40.7158 4.68037 40.7476 4.53239C40.7795 4.3844 40.7815 4.23156 40.7536 4.08277C40.7258 3.93399 40.6685 3.79225 40.5853 3.66582C40.502 3.5394 40.3945 3.43081 40.2688 3.34641C40.1432 3.262 40.0019 3.20347 39.8534 3.17422C39.7049 3.14497 39.5521 3.14559 39.4038 3.17605C39.2555 3.20651 39.1148 3.26619 38.9898 3.35161L37.0353 4.63843L31.521 2.80946L30.6692 3.37076L34.5145 6.29861L32.3244 7.74058L30.4318 6.93871Z" fill="#03045E"/>
<path d="M21.5 0C9.63372 0 0 9.63372 0 21.5C0 33.3663 9.63372 43 21.5 43C33.3448 43 42.9617 33.4007 42.9966 21.5636C42.9988 21.5425 42.9999 21.5213 43 21.5C43 21.4809 42.9991 21.4618 42.9974 21.4428C42.9665 9.60276 33.3474 0 21.5 0ZM24.9972 1.59745C25.3082 1.65126 25.6179 1.71263 25.926 1.78149C26.2459 2.05325 26.5185 2.25449 26.5676 1.92984C33.887 3.81711 39.5892 9.69951 41.2284 17.1161C40.9042 18.9591 41.9456 21.2437 41.452 22.6614C41.2628 22.0048 41.44 21.5804 40.9975 22.1265C40.1427 20.6284 40.2635 17.8777 38.7456 17.2774C38.3491 15.7939 37.5545 15.9779 36.0052 16.2802C33.555 15.8769 37.4543 17.0757 36.3126 18.3098C36.0413 19.6299 34.8425 20.8688 33.6101 21.595C32.7368 22.1239 30.3619 23.982 32.6821 23.1215C33.5538 23.183 34.2387 21.7636 34.5389 23.214C34.0538 24.9383 33.4381 26.7215 31.9684 27.861C31.0095 28.6672 30.0192 30.3146 29.7375 30.8925C30.0097 31.3345 29.4838 32.5824 29.9783 32.8933C30.8177 35.5318 27.0689 35.3056 27.1803 37.3808C25.9522 38.5117 24.7495 40.1706 22.7827 40.2962C20.2556 41.3307 19.0318 38.6725 17.9753 36.922C16.0682 35.5765 18.4436 33.9464 17.4967 32.3837C17.1342 30.8194 14.9163 29.9908 15.6752 28.2725C16.4023 26.8341 13.7058 27.4323 13.4504 25.9957C12.0675 25.5536 10.9504 26.8694 9.47548 26.1075C7.24292 26.3371 6.97632 23.4415 5.83983 22.2426C5.73921 20.3979 6.37733 18.6233 6.89892 16.8504C7.2799 16.4238 7.59982 16.0721 7.78429 15.7883C8.78791 14.3693 9.76401 13.8404 10.2611 13.0991C10.778 12.7796 11.321 12.424 12.1866 12.1582C13.7781 12.2614 15.4783 11.5679 17.1308 11.582C18.413 11.7979 16.6358 13.8125 18.487 13.6073C19.0172 13.6439 20.2982 15.3557 20.6723 14.3908C21.5116 12.3453 23.4935 15.0418 24.8798 14.2429C26.3397 15.0367 27.5028 13.0522 26.4515 12.2477C26.4876 13.1326 25.5553 13.2165 25.5192 12.39C24.4657 11.7897 22.9753 13.7686 22.0126 12.516C20.628 11.825 20.8774 9.85775 19.353 9.37787C19.0155 9.16545 18.8392 9.06526 18.7759 9.04763C18.502 8.97152 20.354 10.4309 20.4598 10.8842C19.6678 10.4696 19.2696 12.8514 18.6216 12.3582C17.6911 11.5782 18.0381 11.3013 19.1187 11.1413C19.7628 11.1271 16.8225 8.59742 17.3634 10.9048C16.1057 11.9342 16.9334 9.21361 17.5539 9.31896C16.2605 9.2579 15.3867 9.72531 14.319 10.5393C13.8709 11.4359 13.0066 12.0512 12.068 12.123C11.8395 12.1018 11.6112 12.0797 11.383 12.0568C11.426 11.7803 11.2755 11.5485 10.8317 11.5064C11.2234 9.91666 12.086 8.25815 13.9578 9.1332C14.4893 7.97693 13.6112 7.4046 14.7684 6.88C13.0729 7.62605 15.1111 5.73491 13.6546 6.46591C12.27 6.21694 15.0384 5.13635 15.1394 4.57477C16.9785 3.80206 15.8421 4.75193 16.0489 5.78307C16.0321 7.19089 17.2146 5.81489 18.0471 5.52722C17.9985 4.71882 19.8062 4.45222 18.1778 4.74763C17.034 3.64855 20.0788 2.91927 20.56 2.24159C22.1644 1.30849 24.5736 3.08998 25.1825 2.22138C26.7619 2.32673 25.272 2.19773 24.9976 1.59745H24.9972ZM16.6573 1.87695C15.9272 2.13538 15.1807 2.34651 14.4351 2.55979C15.162 2.28942 15.904 2.06142 16.6573 1.87695ZM15.1222 2.67417C15.7569 2.66213 16.2777 2.93733 15.0298 3.28477C14.7645 3.35013 14.4828 3.42366 14.2119 3.3239C14.0657 2.86638 14.6286 2.6832 15.1222 2.67417ZM21.1908 4.29011C21.0395 4.31204 20.8202 4.44061 20.5217 4.72914C20.4611 5.49454 18.5425 5.77232 20.21 5.59989C21.2274 6.0888 21.8479 4.19336 21.1908 4.29011ZM30.4315 8.04315C30.0574 7.99886 28.9067 9.1891 30.3417 9.66425C31.6489 10.0624 30.3941 12.0194 32.4014 11.4926C32.5411 10.5363 30.2815 9.03516 30.4216 8.57162C30.5941 8.20999 30.5562 8.0582 30.4315 8.04315ZM24.6098 8.41854C24.0103 8.96335 23.1383 10.5887 24.9151 10.0422C25.5098 9.26865 28.9356 10.7866 27.6056 9.44452C26.5185 8.63397 25.3554 9.41743 24.6098 8.41854ZM7.23948 14.5142C7.36934 14.5336 7.52414 14.6647 7.71463 14.7335L7.61487 15.0423C7.45147 14.9907 7.22357 14.9563 6.91784 14.9399C7.00943 14.583 7.11306 14.4953 7.23948 14.5142ZM32.3424 14.7327C31.808 15.2065 33.6539 16.4294 34.0977 16.7193L34.357 16.5365C34.9074 15.5862 32.6344 15.747 32.3424 14.7327ZM26.9515 16.0347C26.9077 16.8289 27.7733 17.5457 28.128 18.3318C28.6922 19.4652 29.3518 20.8851 30.1503 21.4432C30.2479 21.6445 30.7252 22.2091 30.969 21.899C30.3718 21.0713 30.3425 20.0182 29.421 19.3629C28.7511 18.2148 27.9999 16.7498 26.9515 16.0347ZM33.2235 32.7634C33.6363 32.7914 33.1117 35.0373 32.4801 35.3426C31.9288 35.9987 31.0598 37.8774 30.0346 37.4109C30.1219 35.5391 31.2971 34.2409 32.7776 33.1496C32.9827 32.8688 33.1281 32.757 33.2235 32.7634Z" fill="#135DFF"/>
<path fill-rule="evenodd" clip-rule="evenodd" d="M32.0822 10.4049C31.6796 10.5055 31.2691 10.6337 30.8519 10.788L30.3998 9.56595C30.8575 9.39663 31.3134 9.25393 31.7662 9.14075L32.0822 10.4049ZM28.4747 11.9038C27.734 12.3198 26.9839 12.8007 26.2301 13.3374L25.4744 12.2758C26.2609 11.716 27.0502 11.2094 27.8366 10.7677L28.4747 11.9038ZM24.1135 14.9785C23.4404 15.5419 22.77 16.1413 22.1065 16.7698L21.2104 15.8237C21.8916 15.1786 22.5819 14.5612 23.2772 13.9792L24.1135 14.9785ZM20.1976 18.6751C19.5797 19.3232 18.9723 19.991 18.379 20.6719L17.3966 19.8158C18.002 19.121 18.6225 18.4389 19.2544 17.776L20.1976 18.6751ZM16.6454 22.747C16.0761 23.4575 15.5253 24.1746 14.9966 24.8915L13.9479 24.1182C14.4868 23.3874 15.0482 22.6564 15.6286 21.9322L16.6454 22.747ZM13.437 27.1004C12.918 27.8692 12.4301 28.6291 11.9778 29.3716L10.865 28.6937C11.3283 27.9331 11.8273 27.1562 12.357 26.3714L13.437 27.1004ZM10.6414 31.7079C10.1877 32.5603 9.79679 33.3695 9.47639 34.1201L8.27798 33.6085C8.61539 32.8181 9.02311 31.975 9.4912 31.0957L10.6414 31.7079ZM8.63038 36.5889C8.52109 37.0607 8.46972 37.4612 8.46972 37.7883H7.16669C7.16669 37.3333 7.23697 36.8301 7.36096 36.2948L8.63038 36.5889Z" fill="#03045E"/>
</svg>
