<svg width="62" height="50" viewBox="0 0 62 50" fill="none" xmlns="http://www.w3.org/2000/svg">
<path fill-rule="evenodd" clip-rule="evenodd" d="M32.55 12.5C29.9828 12.5 27.9 14.5996 27.9 17.1875V39.0625C27.9 41.1035 29.1981 42.8418 31 43.4863V47.6562C31 48.9551 32.0366 50 33.325 50H34.875C36.1634 50 37.2 48.9551 37.2 47.6562V43.75H52.7V47.6562C52.7 48.9551 53.7366 50 55.025 50H56.575C57.8634 50 58.9 48.9551 58.9 47.6562V43.4863C60.7019 42.8418 62 41.1035 62 39.0625V17.1875C62 14.5996 59.9172 12.5 57.35 12.5H32.55ZM34.1 29.6875L35.6306 24.873C35.9503 24.0234 36.7253 23.4375 37.6166 23.4375H52.2834C53.1747 23.4375 53.9497 24.0234 54.2694 24.873L55.8 29.6875H34.1ZM57.35 36.7188C57.35 38.0176 56.3134 39.0625 55.025 39.0625C53.7366 39.0625 52.7 38.0176 52.7 36.7188C52.7 35.4199 53.7366 34.375 55.025 34.375C56.3134 34.375 57.35 35.4199 57.35 36.7188ZM32.55 36.7188C32.55 35.4199 33.5866 34.375 34.875 34.375C36.1634 34.375 37.2 35.4199 37.2 36.7188C37.2 38.0176 36.1634 39.0625 34.875 39.0625C33.5866 39.0625 32.55 38.0176 32.55 36.7188Z" fill="#135DFF"/>
<path d="M24.8 8.4043V40.1855L24.8097 40.1953C24.9259 42.3633 26.1369 44.2285 27.9 45.2539V48.4375C27.9 48.9453 27.9775 49.4434 28.1325 49.8144L19.375 46.9629L10.5691 49.9219C10.0944 50.0781 9.57319 49.9121 9.16825 49.6191C8.76428 49.3262 8.525 48.9355 8.525 48.4375V45.3125C8.525 44.834 8.73909 44.3848 9.10625 44.0918L13.95 40.1855V32.2559L1.99563 35.8691C1.52578 36.0156 1.01816 35.9277 0.624747 35.625C0.231628 35.332 0 34.873 0 34.375V28.125C0 27.5781 0.285684 27.0703 0.752525 26.7871L13.95 18.7988V8.4043C13.95 5.33984 16.4106 0 19.375 0C22.4266 0 24.8 5.33984 24.8 8.4043Z" fill="#135DFF"/>
</svg>
