<svg width="71" height="51" viewBox="0 0 71 51" fill="none" xmlns="http://www.w3.org/2000/svg">
<path d="M0.0732422 0V2.71087H21.7602V5.42174H5.49499V8.13261H0.0732422V10.8435H19.0493V13.5544H5.49499V16.2652H0.0732422V18.9761H16.3385V21.687H5.49499V24.3978H0.0732422V27.1087H13.6276V29.8196H5.49499V40.6631C5.49499 42.2896 6.57933 43.3739 8.20586 43.3739H10.9167C11.4589 38.7655 15.5252 34.9865 20.4048 34.9865C25.2843 34.9865 29.3507 38.4944 29.8928 43.3739H38.0254C39.652 43.3739 40.7363 42.2896 40.7363 40.6631V2.71087C40.7363 1.08435 39.652 0 38.0254 0H0.0732422ZM20.4048 38.4618C18.744 38.4676 17.1529 39.1296 15.9783 40.3037C14.8037 41.4778 14.141 43.0686 14.1345 44.7294C14.1402 46.3906 14.8027 47.9821 15.9774 49.1568C17.152 50.3315 18.7436 50.9939 20.4048 50.9996C22.066 50.9939 23.6575 50.3315 24.8322 49.1568C26.0069 47.9821 26.6693 46.3906 26.675 44.7294C26.6693 43.0682 26.0069 41.4766 24.8322 40.302C23.6575 39.1273 22.066 38.4648 20.4048 38.4591V38.4618Z" fill="#135DFF"/>
<path d="M51.2196 40.304C52.3942 39.1299 53.9853 38.4678 55.646 38.4621V38.4594C57.3072 38.4651 58.8988 39.1276 60.0735 40.3022C61.2481 41.4769 61.9106 43.0684 61.9163 44.7296C61.9106 46.3909 61.2481 47.9824 60.0735 49.1571C58.8988 50.3317 57.3072 50.9942 55.646 50.9999C53.9848 50.9942 52.3933 50.3317 51.2186 49.1571C50.044 47.9824 49.3815 46.3909 49.3758 44.7296C49.3822 43.0689 50.045 41.4781 51.2196 40.304Z" fill="#135DFF"/>
<path fill-rule="evenodd" clip-rule="evenodd" d="M46.158 10.8438C44.5315 10.8438 43.4471 11.9281 43.4471 13.5546V40.6633C43.4471 42.0188 44.5315 43.3742 46.158 43.3742C46.7002 38.7657 50.7665 34.9868 55.646 34.9868C60.5256 34.9868 64.5919 38.4946 65.1341 43.3742H67.845C69.4715 43.3742 70.5558 42.2899 70.5558 40.6633V27.109C70.5558 24.6692 68.3519 21.6872 68.3519 21.6872L62.4232 13.5546C62.3634 13.4828 62.3046 13.412 62.2467 13.3424C60.9938 11.8345 60.1707 10.8438 58.3569 10.8438H46.158ZM58.1021 16.2655H51.5797V26.8542H65.9826C65.9826 26.312 65.4214 25.4662 64.8793 24.6529L59.2054 16.7751C59.2054 16.7751 58.6443 16.2655 58.1021 16.2655Z" fill="#135DFF"/>
</svg>
